<mxfile host="app.diagrams.net" modified="2022-01-27T05:28:37.211Z" agent="5.0 (Windows NT 10.0; Win64; x64) AppleWebKit/537.36 (KHTML, like Gecko) Chrome/97.0.4692.99 Safari/537.36" etag="sYEsJb0-NSFWtcem5BZf" version="16.4.7" type="github">
  <diagram id="BHMBP8FzjyPdjWPRwrxV" name="Page-1">
    <mxGraphModel dx="978" dy="575" grid="1" gridSize="10" guides="1" tooltips="1" connect="1" arrows="1" fold="1" page="1" pageScale="1" pageWidth="850" pageHeight="1100" math="0" shadow="0">
      <root>
        <mxCell id="0" />
        <mxCell id="1" parent="0" />
        <mxCell id="DFmh4fNhF3mGiIhDntt9-1" value="" style="rounded=0;whiteSpace=wrap;html=1;fillColor=#f8cecc;strokeColor=#b85450;" vertex="1" parent="1">
          <mxGeometry x="60" y="205.26999999999998" width="90" height="99.47" as="geometry" />
        </mxCell>
        <mxCell id="kV3b2aZajoAjkd-lFf5K-21" value="" style="rounded=0;whiteSpace=wrap;html=1;fillColor=#dae8fc;strokeColor=#6c8ebf;" parent="1" vertex="1">
          <mxGeometry x="390" y="90" width="430" height="310" as="geometry" />
        </mxCell>
        <mxCell id="kV3b2aZajoAjkd-lFf5K-1" value="" style="rounded=0;whiteSpace=wrap;html=1;fillColor=#b0e3e6;strokeColor=#0e8088;" parent="1" vertex="1">
          <mxGeometry x="170" y="150" width="190" height="210" as="geometry" />
        </mxCell>
        <mxCell id="DFmh4fNhF3mGiIhDntt9-3" style="edgeStyle=orthogonalEdgeStyle;rounded=0;orthogonalLoop=1;jettySize=auto;html=1;exitX=1;exitY=0.5;exitDx=0;exitDy=0;" edge="1" parent="1" source="kV3b2aZajoAjkd-lFf5K-2" target="kV3b2aZajoAjkd-lFf5K-10">
          <mxGeometry relative="1" as="geometry" />
        </mxCell>
        <mxCell id="kV3b2aZajoAjkd-lFf5K-2" value="CORE Banking" style="rounded=1;whiteSpace=wrap;html=1;fillColor=#fff2cc;strokeColor=#d6b656;" parent="1" vertex="1">
          <mxGeometry x="65" y="235" width="80" height="40" as="geometry" />
        </mxCell>
        <mxCell id="kV3b2aZajoAjkd-lFf5K-4" value="Bank&lt;br&gt;API&lt;br&gt;Services" style="rounded=1;whiteSpace=wrap;html=1;verticalAlign=top;fillColor=#fff2cc;strokeColor=#d6b656;" parent="1" vertex="1">
          <mxGeometry x="230" y="160" width="120" height="190" as="geometry" />
        </mxCell>
        <mxCell id="kV3b2aZajoAjkd-lFf5K-24" style="edgeStyle=orthogonalEdgeStyle;rounded=0;orthogonalLoop=1;jettySize=auto;html=1;exitX=1;exitY=0.5;exitDx=0;exitDy=0;entryX=0;entryY=0.5;entryDx=0;entryDy=0;" parent="1" source="kV3b2aZajoAjkd-lFf5K-5" target="kV3b2aZajoAjkd-lFf5K-13" edge="1">
          <mxGeometry relative="1" as="geometry" />
        </mxCell>
        <mxCell id="kV3b2aZajoAjkd-lFf5K-5" value="Generate OTP" style="rounded=1;whiteSpace=wrap;html=1;fillColor=#ffe6cc;strokeColor=#d79b00;" parent="1" vertex="1">
          <mxGeometry x="245" y="210" width="90" height="30" as="geometry" />
        </mxCell>
        <mxCell id="kV3b2aZajoAjkd-lFf5K-25" style="edgeStyle=orthogonalEdgeStyle;rounded=0;orthogonalLoop=1;jettySize=auto;html=1;exitX=1;exitY=0.5;exitDx=0;exitDy=0;" parent="1" source="kV3b2aZajoAjkd-lFf5K-6" target="kV3b2aZajoAjkd-lFf5K-13" edge="1">
          <mxGeometry relative="1" as="geometry" />
        </mxCell>
        <mxCell id="kV3b2aZajoAjkd-lFf5K-6" value="Validate Soft Token" style="rounded=1;whiteSpace=wrap;html=1;fillColor=#ffe6cc;strokeColor=#d79b00;" parent="1" vertex="1">
          <mxGeometry x="245" y="244" width="90" height="30" as="geometry" />
        </mxCell>
        <mxCell id="kV3b2aZajoAjkd-lFf5K-26" style="edgeStyle=orthogonalEdgeStyle;rounded=0;orthogonalLoop=1;jettySize=auto;html=1;exitX=1;exitY=0.5;exitDx=0;exitDy=0;" parent="1" source="kV3b2aZajoAjkd-lFf5K-8" target="kV3b2aZajoAjkd-lFf5K-13" edge="1">
          <mxGeometry relative="1" as="geometry" />
        </mxCell>
        <mxCell id="kV3b2aZajoAjkd-lFf5K-8" value="Inquiry" style="rounded=1;whiteSpace=wrap;html=1;fillColor=#ffe6cc;strokeColor=#d79b00;" parent="1" vertex="1">
          <mxGeometry x="245" y="278" width="90" height="30" as="geometry" />
        </mxCell>
        <mxCell id="kV3b2aZajoAjkd-lFf5K-27" style="edgeStyle=orthogonalEdgeStyle;rounded=0;orthogonalLoop=1;jettySize=auto;html=1;exitX=1;exitY=0.5;exitDx=0;exitDy=0;entryX=0;entryY=0.5;entryDx=0;entryDy=0;" parent="1" source="kV3b2aZajoAjkd-lFf5K-9" target="kV3b2aZajoAjkd-lFf5K-13" edge="1">
          <mxGeometry relative="1" as="geometry" />
        </mxCell>
        <mxCell id="kV3b2aZajoAjkd-lFf5K-11" value="" style="rounded=0;whiteSpace=wrap;html=1;fillColor=#f5f5f5;fontColor=#333333;strokeColor=#666666;" parent="1" vertex="1">
          <mxGeometry x="407" y="160" width="250" height="200" as="geometry" />
        </mxCell>
        <mxCell id="kV3b2aZajoAjkd-lFf5K-9" value="Overbooking" style="rounded=1;whiteSpace=wrap;html=1;fillColor=#ffe6cc;strokeColor=#d79b00;" parent="1" vertex="1">
          <mxGeometry x="245" y="312" width="90" height="30" as="geometry" />
        </mxCell>
        <mxCell id="kV3b2aZajoAjkd-lFf5K-10" value="M&lt;br&gt;I&lt;br&gt;D&lt;br&gt;D&lt;br&gt;L&lt;br&gt;E&lt;br&gt;W&lt;br&gt;A&lt;br&gt;R&lt;br&gt;E" style="rounded=1;whiteSpace=wrap;html=1;fillColor=#fff2cc;strokeColor=#d6b656;" parent="1" vertex="1">
          <mxGeometry x="180" y="160" width="40" height="190" as="geometry" />
        </mxCell>
        <mxCell id="kV3b2aZajoAjkd-lFf5K-12" value="" style="rounded=0;whiteSpace=wrap;html=1;fillColor=#f5f5f5;strokeColor=#666666;fontColor=#333333;" parent="1" vertex="1">
          <mxGeometry x="680" y="148.25" width="130" height="221.5" as="geometry" />
        </mxCell>
        <mxCell id="kV3b2aZajoAjkd-lFf5K-28" style="edgeStyle=orthogonalEdgeStyle;rounded=0;orthogonalLoop=1;jettySize=auto;html=1;exitX=1;exitY=0.5;exitDx=0;exitDy=0;entryX=0;entryY=0.5;entryDx=0;entryDy=0;" parent="1" source="kV3b2aZajoAjkd-lFf5K-13" target="kV3b2aZajoAjkd-lFf5K-15" edge="1">
          <mxGeometry relative="1" as="geometry" />
        </mxCell>
        <mxCell id="kV3b2aZajoAjkd-lFf5K-29" style="edgeStyle=orthogonalEdgeStyle;rounded=0;orthogonalLoop=1;jettySize=auto;html=1;exitX=1;exitY=0.5;exitDx=0;exitDy=0;" parent="1" source="kV3b2aZajoAjkd-lFf5K-13" target="kV3b2aZajoAjkd-lFf5K-16" edge="1">
          <mxGeometry relative="1" as="geometry" />
        </mxCell>
        <mxCell id="kV3b2aZajoAjkd-lFf5K-13" value="RTP&lt;br&gt;Adaptor" style="rounded=1;whiteSpace=wrap;html=1;fillColor=#dae8fc;strokeColor=#6c8ebf;" parent="1" vertex="1">
          <mxGeometry x="417" y="171.5" width="60" height="175" as="geometry" />
        </mxCell>
        <mxCell id="kV3b2aZajoAjkd-lFf5K-30" style="edgeStyle=orthogonalEdgeStyle;rounded=0;orthogonalLoop=1;jettySize=auto;html=1;exitX=1;exitY=0.5;exitDx=0;exitDy=0;entryX=0;entryY=0.5;entryDx=0;entryDy=0;" parent="1" source="kV3b2aZajoAjkd-lFf5K-14" target="kV3b2aZajoAjkd-lFf5K-12" edge="1">
          <mxGeometry relative="1" as="geometry" />
        </mxCell>
        <mxCell id="kV3b2aZajoAjkd-lFf5K-14" value="RTP Services" style="rounded=1;whiteSpace=wrap;html=1;verticalAlign=top;fillColor=#dae8fc;strokeColor=#6c8ebf;" parent="1" vertex="1">
          <mxGeometry x="497" y="171.5" width="150" height="175" as="geometry" />
        </mxCell>
        <mxCell id="kV3b2aZajoAjkd-lFf5K-15" value="Account Binding" style="rounded=1;whiteSpace=wrap;html=1;fillColor=#fad7ac;strokeColor=#b46504;" parent="1" vertex="1">
          <mxGeometry x="527" y="200" width="90" height="30" as="geometry" />
        </mxCell>
        <mxCell id="kV3b2aZajoAjkd-lFf5K-16" value="Payment" style="rounded=1;whiteSpace=wrap;html=1;fillColor=#fad7ac;strokeColor=#b46504;" parent="1" vertex="1">
          <mxGeometry x="527" y="234" width="90" height="30" as="geometry" />
        </mxCell>
        <mxCell id="kV3b2aZajoAjkd-lFf5K-17" value="Refund" style="rounded=1;whiteSpace=wrap;html=1;fillColor=#fad7ac;strokeColor=#b46504;" parent="1" vertex="1">
          <mxGeometry x="527" y="268" width="90" height="30" as="geometry" />
        </mxCell>
        <mxCell id="kV3b2aZajoAjkd-lFf5K-18" value="Payment Inquiry" style="rounded=1;whiteSpace=wrap;html=1;fillColor=#fad7ac;strokeColor=#b46504;" parent="1" vertex="1">
          <mxGeometry x="527" y="302" width="90" height="30" as="geometry" />
        </mxCell>
        <mxCell id="kV3b2aZajoAjkd-lFf5K-19" value="Consumer App" style="rounded=1;whiteSpace=wrap;html=1;fillColor=#fad7ac;strokeColor=#b46504;" parent="1" vertex="1">
          <mxGeometry x="700" y="210" width="90" height="30" as="geometry" />
        </mxCell>
        <mxCell id="kV3b2aZajoAjkd-lFf5K-20" value="OTP Receiver" style="rounded=1;whiteSpace=wrap;html=1;fillColor=#fad7ac;strokeColor=#b46504;" parent="1" vertex="1">
          <mxGeometry x="700" y="278" width="90" height="30" as="geometry" />
        </mxCell>
        <mxCell id="kV3b2aZajoAjkd-lFf5K-22" value="Collega Environment" style="text;html=1;strokeColor=none;fillColor=none;align=left;verticalAlign=middle;whiteSpace=wrap;rounded=0;fontStyle=1" parent="1" vertex="1">
          <mxGeometry x="170" y="120" width="180" height="30" as="geometry" />
        </mxCell>
        <mxCell id="kV3b2aZajoAjkd-lFf5K-23" value="Indepay Environment" style="text;html=1;strokeColor=none;fillColor=none;align=left;verticalAlign=middle;whiteSpace=wrap;rounded=0;fontStyle=1" parent="1" vertex="1">
          <mxGeometry x="390" y="60" width="180" height="30" as="geometry" />
        </mxCell>
        <mxCell id="kV3b2aZajoAjkd-lFf5K-31" value="RTP Component" style="text;html=1;strokeColor=none;fillColor=none;align=left;verticalAlign=middle;whiteSpace=wrap;rounded=0;fontStyle=1" parent="1" vertex="1">
          <mxGeometry x="407" y="130" width="180" height="30" as="geometry" />
        </mxCell>
        <mxCell id="kV3b2aZajoAjkd-lFf5K-32" value="Mobile Device" style="text;html=1;strokeColor=none;fillColor=none;align=left;verticalAlign=middle;whiteSpace=wrap;rounded=0;fontStyle=1" parent="1" vertex="1">
          <mxGeometry x="680" y="118.25" width="180" height="30" as="geometry" />
        </mxCell>
        <mxCell id="DFmh4fNhF3mGiIhDntt9-2" value="Telkom Sigma&lt;br&gt;Environment" style="text;html=1;strokeColor=none;fillColor=none;align=left;verticalAlign=middle;whiteSpace=wrap;rounded=0;fontStyle=1" vertex="1" parent="1">
          <mxGeometry x="60" y="175.27" width="180" height="30" as="geometry" />
        </mxCell>
      </root>
    </mxGraphModel>
  </diagram>
</mxfile>
